<?xml version="1.0" standalone="no"?>
<!DOCTYPE svg PUBLIC "-//W3C//DTD SVG 20010904//EN"
 "http://www.w3.org/TR/2001/REC-SVG-20010904/DTD/svg10.dtd">
<svg version="1.0" xmlns="http://www.w3.org/2000/svg"
 width="1024.000000pt" height="1024.000000pt" viewBox="0 0 1024.000000 1024.000000"
 preserveAspectRatio="xMidYMid meet">

<g transform="translate(0.000000,1024.000000) scale(0.100000,-0.100000)"
fill="#000000" stroke="none">
<path d="M4855 8543 c-434 -39 -893 -197 -1251 -431 -681 -446 -1105 -1104
-1231 -1912 -23 -144 -25 -583 -5 -730 105 -742 489 -1385 1096 -1834 236
-174 506 -313 788 -405 270 -87 469 -121 759 -128 308 -8 537 16 801 82 810
205 1525 823 1850 1600 240 573 273 1224 92 1825 -127 420 -352 795 -664 1110
-363 367 -768 602 -1270 740 -238 65 -449 91 -725 88 -110 -1 -218 -3 -240 -5z
m672 -101 c769 -120 1461 -576 1868 -1232 195 -314 316 -647 372 -1025 28
-188 25 -564 -5 -755 -92 -576 -342 -1061 -759 -1472 -140 -138 -203 -191
-347 -292 -374 -262 -762 -411 -1226 -472 -160 -20 -582 -15 -735 10 -392 64
-746 203 -1074 421 -169 112 -272 196 -417 340 -425 423 -692 967 -758 1545
-49 427 9 889 161 1270 152 382 387 723 685 991 315 283 657 476 1053 593 148
44 238 63 414 87 187 25 574 21 768 -9z"/>
<path d="M5107 8333 c-11 -10 -8 -71 3 -78 6 -4 10 12 10 39 0 47 -2 51 -13
39z"/>
<path d="M4950 8235 c19 -19 38 -35 44 -35 5 0 -5 16 -24 35 -19 19 -38 35
-44 35 -5 0 5 -16 24 -35z"/>
<path d="M5255 8240 c-16 -16 -26 -32 -23 -35 7 -7 68 43 68 56 0 17 -16 9
-45 -21z"/>
<path d="M5052 8186 c-34 -18 -62 -66 -62 -104 0 -73 52 -122 131 -122 33 0
47 6 75 34 27 27 34 42 34 74 0 23 -4 52 -10 66 -20 54 -113 83 -168 52z m135
-41 c16 -18 23 -39 23 -70 0 -36 -5 -47 -31 -69 -52 -44 -125 -33 -154 24 -40
78 13 156 100 146 27 -3 47 -13 62 -31z"/>
<path d="M4850 8080 c0 -5 20 -10 45 -10 25 0 45 5 45 10 0 6 -20 10 -45 10
-25 0 -45 -4 -45 -10z"/>
<path d="M5280 8080 c0 -5 23 -10 50 -10 28 0 50 5 50 10 0 6 -22 10 -50 10
-27 0 -50 -4 -50 -10z"/>
<path d="M4010 8015 c0 -28 4 -44 10 -40 6 3 10 21 10 40 0 19 -4 37 -10 40
-6 4 -10 -12 -10 -40z"/>
<path d="M3860 7955 c19 -19 38 -35 42 -35 5 0 -3 16 -18 35 -14 19 -33 35
-42 35 -11 0 -5 -11 18 -35z"/>
<path d="M4161 7960 c-19 -16 -32 -33 -28 -37 4 -4 24 10 45 30 44 44 32 49
-17 7z"/>
<path d="M4947 7928 c-40 -45 -23 -49 21 -5 22 22 31 37 22 37 -8 -1 -27 -15
-43 -32z"/>
<path d="M5230 7952 c0 -14 59 -66 67 -59 3 4 -6 21 -22 37 -28 30 -45 38 -45
22z"/>
<path d="M6174 7941 c-51 -23 -111 -93 -125 -145 -32 -117 41 -241 158 -271
52 -13 139 -3 161 18 12 12 7 15 -33 21 -37 6 -56 17 -95 54 -61 59 -73 114
-42 183 25 58 60 88 124 110 l53 18 -37 15 c-49 21 -114 20 -164 -3z m116 -11
c0 -5 -4 -10 -10 -10 -20 0 -84 -66 -101 -105 -44 -95 1 -203 106 -258 l30
-16 -50 0 c-174 -1 -266 196 -152 326 17 20 50 44 72 54 43 20 105 25 105 9z"/>
<path d="M3980 7917 c-41 -14 -80 -68 -80 -109 0 -69 52 -118 125 -118 80 0
130 71 106 150 -19 65 -87 100 -151 77z m80 -22 c61 -31 78 -99 39 -149 -30
-38 -64 -49 -105 -36 -69 23 -95 100 -53 154 36 45 73 55 119 31z"/>
<path d="M5108 7892 c-7 -24 5 -83 13 -67 3 6 2 28 -1 50 -4 33 -6 36 -12 17z"/>
<path d="M4185 7810 c-4 -6 13 -10 45 -10 32 0 49 4 45 10 -3 6 -24 10 -45 10
-21 0 -42 -4 -45 -10z"/>
<path d="M3763 7803 c10 -9 88 -10 93 -1 3 5 -18 8 -47 8 -29 0 -49 -3 -46 -7z"/>
<path d="M4848 7774 c-433 -52 -871 -271 -1173 -585 -161 -168 -269 -321 -361
-514 -134 -283 -194 -545 -194 -853 0 -303 57 -562 180 -821 186 -388 456
-673 850 -896 462 -262 1066 -316 1589 -143 548 182 988 587 1215 1120 91 212
135 418 143 673 7 214 -8 367 -53 545 -126 491 -417 895 -847 1175 -380 247
-873 356 -1349 299z m540 -84 c298 -43 538 -134 782 -294 466 -306 760 -768
836 -1311 20 -146 15 -451 -11 -588 -66 -358 -237 -691 -494 -959 -324 -338
-712 -531 -1184 -589 -121 -14 -409 -7 -522 14 -369 69 -674 214 -961 458
-141 120 -315 336 -406 504 -95 177 -152 330 -195 525 -30 141 -43 449 -24
595 74 563 367 1036 834 1346 252 166 508 262 812 303 152 21 377 19 533 -4z"/>
<path d="M4760 7566 c0 -7 7 -53 16 -102 59 -330 103 -588 101 -589 -19 -12
-140 -35 -146 -29 -8 10 -86 221 -177 479 -30 88 -60 164 -65 169 -21 23 -16
-8 20 -110 22 -60 75 -209 119 -332 l79 -223 -68 -34 -68 -35 -69 118 c-38 64
-118 201 -178 305 -98 169 -124 206 -124 178 0 -5 29 -58 63 -118 191 -325
288 -495 285 -497 -2 -1 -28 -18 -59 -39 -30 -20 -60 -37 -65 -36 -5 0 -27 22
-49 48 -235 279 -410 481 -416 481 -18 0 -7 -18 64 -100 40 -47 110 -130 157
-185 46 -55 106 -126 134 -158 27 -31 47 -59 44 -62 -5 -5 -112 69 -426 292
-57 40 -108 73 -113 73 -10 0 172 -179 501 -493 96 -92 181 -174 188 -182 10
-12 5 -25 -34 -77 -55 -75 -101 -163 -124 -238 l-18 -55 -121 -19 c-67 -10
-124 -17 -126 -14 -3 3 6 47 19 100 24 95 83 226 138 306 28 41 29 44 14 67
-9 14 -18 25 -20 25 -2 0 -23 -29 -46 -65 l-43 -65 -111 58 c-61 33 -200 107
-309 166 -109 58 -202 106 -207 106 -27 0 -3 -21 63 -55 151 -79 242 -128 252
-135 6 -4 69 -38 140 -75 72 -37 136 -73 143 -80 10 -9 6 -24 -18 -78 l-30
-67 -113 41 c-232 83 -540 189 -549 189 -21 0 0 -24 28 -33 16 -5 156 -54 311
-108 155 -54 287 -99 292 -99 20 0 21 -19 5 -82 -9 -34 -17 -64 -19 -66 -3 -3
-647 105 -677 114 -11 3 -18 0 -18 -8 0 -14 11 -16 490 -98 96 -17 181 -32
188 -35 13 -5 17 -31 4 -38 -4 -3 -166 -31 -360 -64 -193 -32 -352 -61 -352
-65 0 -5 227 -8 504 -8 l504 0 7 -67 c9 -102 24 -160 62 -250 l34 -81 -68 -96
c-37 -52 -71 -95 -76 -95 -13 -1 -85 120 -118 199 -17 41 -41 113 -52 160 -11
47 -21 85 -21 86 -1 1 -13 4 -28 8 -24 5 -28 3 -28 -14 0 -11 -1 -20 -2 -21
-2 0 -157 -26 -345 -58 -189 -31 -346 -60 -350 -64 -3 -4 -4 -10 0 -13 3 -3
157 20 341 51 185 31 341 55 348 53 10 -4 52 -128 45 -135 -5 -4 -600 -211
-630 -218 -27 -7 -44 -22 -35 -31 5 -4 563 182 659 221 13 5 24 -9 48 -61 17
-36 31 -68 31 -69 0 -4 -237 -132 -452 -244 -87 -45 -160 -87 -164 -92 -14
-23 8 -19 58 9 29 16 103 55 163 87 61 32 177 93 258 137 82 44 150 78 152 76
7 -8 75 -118 75 -121 0 -3 -35 -31 -77 -62 -163 -122 -473 -369 -473 -377 0
-17 18 -6 125 78 322 252 367 286 370 282 2 -2 -43 -64 -101 -138 -97 -126
-229 -306 -249 -340 -15 -25 66 44 140 120 39 40 182 178 318 307 l248 236 37
-32 c100 -85 249 -168 329 -186 18 -3 35 -10 37 -13 5 -9 36 -186 36 -208 0
-14 -8 -15 -47 -9 -111 16 -283 86 -392 159 -62 42 -69 43 -105 15 -58 -46
-473 -546 -462 -557 9 -8 36 22 156 169 47 57 126 151 175 209 50 58 100 118
112 133 l22 28 60 -41 c34 -22 61 -45 61 -50 0 -9 -126 -227 -261 -453 -86
-143 -98 -167 -81 -167 4 0 74 111 154 248 81 136 163 273 182 304 l35 57 69
-30 70 -31 -15 -37 c-16 -38 -154 -410 -204 -550 -27 -73 -32 -107 -13 -89 3
3 57 145 120 314 63 170 119 319 124 331 l9 22 67 -19 c37 -11 69 -22 72 -24
5 -6 -24 -181 -79 -464 -42 -216 -45 -242 -29 -242 6 0 10 2 10 5 0 7 121 647
127 673 4 16 12 22 32 22 14 0 32 -4 39 -8 7 -5 25 -84 43 -188 50 -298 88
-507 94 -512 3 -3 5 213 5 480 l0 485 72 8 c92 9 212 46 311 97 l78 41 85 -59
c47 -32 88 -62 91 -67 8 -14 -19 -38 -96 -83 -95 -55 -211 -101 -316 -123 -74
-16 -80 -20 -83 -44 -3 -23 0 -26 35 -29 l37 -3 23 -125 c12 -69 38 -218 58
-332 38 -220 42 -238 56 -238 12 0 16 -25 -51 342 -33 182 -60 338 -60 349 0
13 12 21 43 29 23 6 52 15 65 20 13 6 27 8 31 5 4 -2 61 -150 126 -327 114
-313 129 -348 140 -336 6 6 -28 103 -154 442 -45 120 -80 223 -79 228 2 6 32
23 66 39 l62 28 16 -22 c9 -12 61 -98 116 -192 208 -355 233 -395 240 -395 16
0 7 23 -41 103 -27 45 -105 177 -175 294 -69 116 -126 216 -126 221 0 6 28 29
62 52 49 33 64 38 73 28 17 -19 364 -433 405 -484 30 -37 60 -56 60 -39 0 3
-91 113 -202 245 -219 261 -234 280 -220 280 11 0 278 -187 426 -298 97 -73
126 -91 126 -78 0 2 -96 95 -212 207 -341 325 -488 469 -488 475 0 4 22 36 49
73 57 78 81 122 111 213 l22 66 62 11 c33 5 89 13 124 17 75 8 74 9 37 -120
-28 -97 -69 -183 -126 -267 l-38 -57 34 -44 c39 -50 47 -56 264 -223 85 -65
182 -140 215 -167 55 -44 87 -59 86 -40 -1 4 -114 94 -253 200 -139 106 -263
202 -275 212 l-24 20 39 59 c21 33 40 60 43 60 5 1 152 -78 527 -280 50 -27
94 -45 97 -40 6 10 -32 33 -189 116 -49 26 -112 60 -140 75 -27 15 -103 55
-167 89 l-118 63 16 31 c23 48 49 102 50 104 0 2 65 -20 145 -48 438 -154 557
-191 522 -159 -4 4 -100 39 -213 78 -381 131 -440 153 -440 169 0 8 7 39 16
69 11 38 20 54 32 54 9 0 163 -25 341 -55 178 -31 326 -53 329 -50 16 15 -40
28 -343 77 -315 51 -330 54 -333 76 -2 12 1 22 5 22 5 0 130 22 278 49 149 27
303 54 343 61 40 7 70 15 67 18 -3 4 -228 5 -499 3 l-493 -3 -7 73 c-9 89 -38
194 -76 269 l-28 56 71 96 c40 54 75 97 80 98 13 0 93 -131 122 -200 32 -76
65 -186 65 -217 0 -24 3 -27 43 -37 24 -6 27 -3 27 17 0 22 6 25 108 41 176
29 556 96 571 102 9 3 11 8 5 13 -5 5 -55 1 -114 -10 -268 -49 -573 -100 -577
-96 -5 5 -33 103 -36 125 -1 9 56 33 168 72 351 119 479 167 483 179 6 17 19
21 -341 -105 -164 -57 -305 -104 -313 -104 -8 0 -26 26 -41 58 -15 31 -29 60
-31 64 -4 8 24 24 343 193 268 142 283 150 273 161 -7 7 -76 -27 -238 -116
-58 -31 -170 -91 -250 -133 l-146 -76 -37 59 c-20 33 -37 63 -37 67 0 5 16 19
35 33 153 112 515 395 515 402 0 22 -21 7 -367 -260 -73 -56 -134 -102 -137
-102 -3 0 71 101 164 225 93 124 177 237 187 252 24 38 -19 -1 -385 -352 -167
-159 -308 -292 -313 -293 -5 -2 -30 15 -55 37 -66 58 -181 123 -265 151 -41
14 -76 26 -78 27 -3 2 -40 199 -41 217 0 14 94 -3 193 -35 90 -30 181 -75 264
-131 23 -15 46 -28 52 -28 23 0 151 142 434 483 63 76 79 103 58 95 -9 -3
-315 -359 -412 -479 l-46 -57 -61 42 c-34 22 -61 45 -62 49 0 4 79 142 175
307 96 164 175 301 175 304 0 37 -66 -67 -310 -489 -35 -60 -65 -111 -66 -113
-3 -5 -134 62 -134 68 0 4 21 62 46 131 191 517 206 565 174 533 -5 -5 -62
-153 -126 -329 -64 -176 -118 -322 -120 -324 -4 -5 -92 15 -130 30 l-21 7 27
144 c15 79 44 232 65 340 35 185 41 257 17 198 -5 -14 -35 -161 -66 -325 -31
-165 -59 -312 -62 -327 -4 -21 -12 -28 -28 -28 -47 0 -51 13 -111 363 -32 185
-62 337 -67 337 -4 0 -8 -215 -8 -479 l0 -478 -67 -7 c-122 -12 -281 -65 -354
-117 -16 -11 -35 -17 -41 -13 -29 16 -178 129 -178 134 0 12 140 97 213 128
43 19 125 45 182 60 96 23 105 28 105 49 0 20 -5 23 -34 23 l-34 0 -12 73 c-7
39 -32 182 -56 317 -24 135 -46 260 -49 278 -6 31 -25 46 -25 18z m537 -1052
c84 -21 192 -77 270 -139 315 -251 354 -718 83 -1008 -154 -164 -326 -241
-540 -241 -129 0 -203 18 -328 80 -165 81 -308 244 -365 417 -17 51 -20 88
-21 207 0 132 3 151 27 219 75 208 252 383 454 450 124 42 293 48 420 15z"/>
<path d="M3670 6913 c0 -6 24 -28 53 -50 29 -22 151 -115 271 -207 119 -93
220 -165 223 -162 11 11 -28 44 -280 236 -238 181 -267 201 -267 183z"/>
<path d="M6330 7774 c0 -9 -10 -18 -22 -22 l-22 -5 22 -8 c12 -5 22 -15 22
-24 0 -8 5 -15 10 -15 6 0 10 7 10 15 0 9 10 20 23 25 18 7 19 9 4 9 -11 1
-21 10 -24 21 -6 24 -23 27 -23 4z"/>
<path d="M3865 7660 c-38 -40 -26 -49 16 -12 18 16 28 32 22 35 -5 3 -23 -7
-38 -23z"/>
<path d="M4137 7683 c-6 -9 61 -68 69 -61 2 2 -11 19 -30 37 -19 18 -36 29
-39 24z"/>
<path d="M4010 7595 c0 -25 5 -45 10 -45 6 0 10 20 10 45 0 25 -4 45 -10 45
-5 0 -10 -20 -10 -45z"/>
<path d="M3085 7281 c-136 -62 -195 -213 -136 -347 46 -103 133 -159 246 -158
153 0 257 107 258 264 0 104 -56 194 -148 236 -63 30 -161 32 -220 5z m231
-36 c33 -21 60 -48 82 -85 27 -47 32 -63 32 -120 -1 -104 -43 -176 -131 -220
-52 -27 -146 -30 -200 -7 -51 21 -109 76 -130 122 -22 48 -25 151 -5 199 20
47 70 101 119 126 64 32 167 25 233 -15z"/>
<path d="M3188 7159 c-3 -37 -7 -44 -32 -52 -22 -7 -31 -7 -34 2 -4 12 -62 46
-62 36 0 -4 13 -17 29 -30 26 -23 27 -27 17 -60 -11 -34 -22 -40 -68 -36 -10
1 -18 -3 -18 -8 0 -6 17 -11 38 -11 31 -1 40 -6 57 -33 18 -29 26 -32 75 -35
46 -3 60 -8 88 -35 22 -21 32 -26 32 -16 0 9 -11 26 -25 39 -23 21 -23 24 -9
51 12 24 21 29 50 29 21 0 33 4 29 10 -3 6 -18 10 -33 10 -22 0 -30 7 -39 31
-11 28 -9 32 20 59 18 16 27 30 21 30 -6 0 -23 -11 -38 -25 -25 -23 -29 -24
-54 -11 -22 11 -28 22 -30 52 -4 53 -10 54 -14 3z m57 -84 c69 -68 -22 -174
-98 -115 -53 42 -20 140 48 140 14 0 37 -11 50 -25z"/>
<path d="M3095 6910 c-16 -16 -26 -32 -24 -35 3 -3 18 9 34 25 16 16 26 32 24
35 -3 3 -18 -9 -34 -25z"/>
<path d="M7043 7191 c-49 -13 -120 -58 -149 -96 -76 -100 -72 -236 11 -333 72
-86 223 -114 316 -60 55 32 103 85 124 135 19 45 19 153 1 197 -20 49 -85 117
-131 137 -49 21 -129 31 -172 20z m167 -41 c117 -60 163 -194 106 -315 -44
-96 -121 -140 -231 -133 -82 5 -147 44 -190 112 -26 43 -30 59 -30 120 0 60 4
79 28 118 66 113 204 156 317 98z"/>
<path d="M7068 7084 c-90 -64 -102 -200 -25 -282 27 -29 77 -56 85 -46 4 4 1
9 -6 12 -28 9 -85 68 -98 99 -32 75 0 171 70 208 20 11 36 23 36 27 0 15 -26
8 -62 -18z"/>
<path d="M7158 6958 c-2 -14 -12 -25 -28 -29 l-25 -6 28 -11 c17 -7 27 -19 27
-32 0 -11 5 -20 10 -20 6 0 10 11 10 24 0 18 7 26 28 31 l27 8 -25 6 c-16 4
-26 15 -28 29 -2 12 -7 22 -12 22 -5 0 -10 -10 -12 -22z"/>
<path d="M2715 6097 c-61 -29 -116 -88 -140 -150 -22 -59 -16 -155 13 -212 66
-130 235 -180 362 -109 127 71 173 221 107 351 -46 89 -117 134 -221 140 -60
3 -79 0 -121 -20z m222 -26 c54 -27 100 -84 120 -149 32 -100 -14 -216 -105
-269 -120 -71 -269 -35 -337 81 -81 137 -13 306 145 357 40 13 133 3 177 -20z"/>
<path d="M2792 6004 c-45 -36 -72 -93 -72 -154 0 -57 10 -81 49 -123 23 -26
71 -57 86 -57 17 0 1 19 -25 30 -17 7 -44 31 -60 53 -25 33 -30 51 -30 94 0
30 7 67 15 82 17 34 70 81 91 81 8 0 14 5 14 10 0 18 -35 10 -68 -16z"/>
<path d="M2885 5880 c-3 -11 -14 -20 -22 -20 -12 0 -10 -5 8 -22 13 -13 26
-19 28 -15 2 5 15 13 30 19 l26 10 -22 9 c-13 4 -23 15 -23 24 0 22 -18 19
-25 -5z"/>
<path d="M7391 5968 c-1 -63 -9 -71 -35 -35 l-17 22 6 -22 c8 -28 -13 -51 -40
-46 -18 3 -18 2 3 -8 35 -19 26 -29 -29 -29 -33 0 -48 -4 -44 -11 4 -6 25 -9
48 -7 48 4 59 -13 20 -30 l-28 -12 26 5 c15 3 41 -2 58 -11 28 -14 31 -20 33
-67 l1 -52 6 54 c7 63 23 75 41 31 7 -17 15 -29 17 -26 3 2 -1 14 -7 26 -19
36 -2 36 35 0 19 -18 37 -31 41 -28 3 3 -11 19 -30 35 -43 33 -46 48 -9 38
l27 -6 -25 20 c-28 22 -20 28 46 34 35 3 33 4 -12 5 -57 2 -67 12 -30 31 21
11 21 11 -5 6 -38 -7 -35 7 7 44 20 17 31 31 25 31 -7 0 -25 -13 -42 -30 -36
-37 -40 -37 -33 -2 5 26 5 26 -6 4 -18 -33 -33 -21 -37 29 -5 67 -10 71 -11 7z
m47 -91 c30 -23 -3 -87 -45 -87 -19 0 -43 30 -43 55 0 44 49 62 88 32z"/>
<path d="M7260 5964 c0 -10 62 -65 68 -60 2 3 1 9 -2 15 -10 15 -66 54 -66 45z"/>
<path d="M7300 5761 c-37 -31 -39 -51 -2 -25 18 12 49 55 40 54 -2 0 -19 -14
-38 -29z"/>
<path d="M7346 5755 c-9 -26 -7 -32 5 -12 6 10 9 21 6 23 -2 3 -7 -2 -11 -11z"/>
<path d="M6955 4896 c-60 -28 -108 -76 -131 -131 -22 -50 -22 -157 -2 -206 57
-134 222 -197 353 -135 199 94 209 367 16 468 -71 37 -163 39 -236 4z m198
-12 c57 -19 128 -93 145 -152 48 -160 -71 -312 -245 -312 -47 0 -129 38 -165
76 -60 64 -78 181 -40 267 22 49 82 105 133 123 48 18 118 17 172 -2z"/>
<path d="M6890 4771 c0 -6 8 -11 18 -11 22 -1 46 -19 61 -48 19 -36 7 -52 -39
-52 -22 0 -40 -5 -40 -11 0 -12 324 -8 336 4 4 4 -9 7 -30 7 -23 0 -39 5 -42
15 -9 22 22 63 59 79 31 14 31 14 6 15 -35 1 -77 -33 -87 -72 -8 -32 -9 -32
-72 -32 l-64 0 -7 34 c-4 18 -15 42 -25 52 -23 22 -74 36 -74 20z"/>
<path d="M6905 4600 c-4 -7 48 -10 149 -10 97 0 156 4 156 10 0 6 -56 10 -149
10 -89 0 -152 -4 -156 -10z"/>
<path d="M6980 4535 c0 -8 5 -15 10 -15 6 0 10 7 10 15 0 8 -4 15 -10 15 -5 0
-10 -7 -10 -15z"/>
<path d="M7082 4541 c4 -13 18 -16 19 -4 0 4 -5 9 -11 12 -7 2 -11 -2 -8 -8z"/>
<path d="M3122 4835 c-2 -26 -8 -33 -37 -44 -33 -12 -37 -11 -54 11 -11 13
-23 19 -28 15 -4 -5 3 -17 16 -28 21 -17 22 -23 12 -45 -29 -64 3 -136 68
-154 35 -9 46 -8 80 9 52 27 69 73 46 127 -15 37 -15 38 12 66 15 15 22 28 15
28 -6 0 -19 -11 -29 -23 -17 -23 -18 -23 -55 -8 -29 13 -38 22 -41 46 l-4 30
-1 -30z m67 -79 c53 -56 13 -150 -63 -150 -79 0 -117 96 -60 149 36 34 92 34
123 1z"/>
<path d="M2955 4690 c3 -5 15 -10 26 -10 10 0 19 5 19 10 0 6 -12 10 -26 10
-14 0 -23 -4 -19 -10z"/>
<path d="M3263 4693 c9 -2 23 -2 30 0 6 3 -1 5 -18 5 -16 0 -22 -2 -12 -5z"/>
<path d="M3017 4592 c-10 -10 -17 -22 -17 -25 0 -11 39 16 44 30 8 19 -8 16
-27 -5z"/>
<path d="M3210 4602 c0 -5 9 -17 20 -27 22 -20 26 -9 6 18 -14 18 -26 22 -26
9z"/>
<path d="M3122 4545 c0 -16 2 -22 5 -12 2 9 2 23 0 30 -3 6 -5 -1 -5 -18z"/>
<path d="M3765 4001 c-7 -12 12 -24 25 -16 15 10 49 -13 65 -45 10 -20 15 -59
15 -125 0 -52 4 -95 9 -95 5 0 10 47 13 104 3 105 11 126 49 146 12 7 24 4 43
-11 24 -19 26 -26 26 -107 0 -87 7 -132 19 -132 3 0 6 46 6 103 0 83 4 107 19
130 22 32 60 45 81 27 20 -17 32 -5 15 15 -21 25 -65 18 -96 -15 -28 -29 -28
-29 -46 -10 -28 29 -81 26 -107 -6 -19 -25 -20 -25 -31 -5 -19 36 -91 64 -105
42z"/>
<path d="M6230 3939 c0 -49 -23 -57 -62 -24 -40 34 -49 23 -13 -15 23 -24 26
-32 15 -45 -7 -8 -25 -15 -41 -15 -16 0 -29 -4 -29 -10 0 -5 13 -10 29 -10 16
0 34 -7 41 -15 11 -13 8 -21 -20 -50 -39 -40 -29 -48 11 -9 40 38 68 26 71
-29 l1 -42 4 36 c2 20 12 44 21 53 16 14 20 13 50 -15 40 -38 54 -31 18 8 -40
43 -31 67 29 76 27 4 27 4 -7 6 -55 2 -66 29 -28 66 17 16 28 31 25 34 -3 2
-18 -8 -33 -23 -32 -30 -62 -27 -62 8 0 11 -5 28 -10 36 -7 11 -10 6 -10 -21z
m48 -71 c29 -24 5 -88 -33 -88 -24 0 -65 31 -65 49 0 4 9 20 21 35 21 27 46
28 77 4z"/>
<path d="M5024 3814 c-60 -22 -123 -80 -150 -138 -28 -61 -32 -154 -9 -210 39
-94 139 -158 246 -157 147 0 259 111 259 257 0 71 -17 119 -62 169 -67 77
-195 112 -284 79z m194 -37 c166 -76 176 -314 18 -411 -98 -61 -236 -41 -310
46 -111 129 -44 340 122 384 56 15 111 9 170 -19z"/>
<path d="M4965 3677 c43 -25 42 -20 29 -117 -5 -40 -3 -50 20 -77 52 -62 133
-64 187 -7 21 22 24 35 24 101 0 62 4 77 20 89 10 8 25 14 33 14 7 0 11 4 8 9
-9 14 -45 1 -64 -24 l-16 -22 -48 20 c-43 19 -50 19 -86 5 -37 -14 -40 -14
-68 8 -16 13 -40 24 -54 24 -22 0 -21 -3 15 -23z m178 -26 c71 -27 89 -106 38
-163 -24 -27 -36 -33 -71 -33 -82 0 -129 96 -79 159 33 42 69 53 112 37z"/>
<path d="M3107 2980 l-27 -39 135 -92 c75 -51 132 -96 128 -100 -7 -7 -258
-87 -464 -149 -61 -18 -80 -29 -97 -55 -12 -17 -22 -34 -22 -38 0 -3 26 -24
58 -46 31 -22 107 -77 167 -121 61 -45 129 -95 151 -110 l42 -29 26 37 c14 21
26 41 26 45 0 3 -61 50 -135 103 -74 53 -137 100 -140 104 -5 8 41 23 384 128
147 45 154 49 177 85 14 21 22 42 20 46 -3 5 -40 32 -81 60 -41 28 -126 87
-189 131 -62 44 -117 80 -122 80 -5 0 -21 -18 -37 -40z"/>
<path d="M6934 2726 c-58 -27 -120 -94 -134 -145 -31 -113 20 -241 118 -299
134 -78 334 23 365 186 l7 32 -50 0 c-44 0 -50 -3 -50 -20 0 -62 -68 -120
-141 -120 -69 0 -116 44 -71 66 44 22 262 179 262 189 0 23 -63 85 -112 109
-66 33 -126 34 -194 2z m154 -92 c12 -8 22 -21 22 -28 0 -13 -181 -136 -200
-136 -15 0 -22 59 -10 95 17 53 62 85 119 85 26 0 56 -7 69 -16z"/>
<path d="M6618 2502 c-21 -23 -38 -55 -43 -78 l-7 -39 -18 23 c-10 12 -20 27
-22 34 -3 8 -19 3 -49 -13 -24 -13 -45 -24 -47 -25 -4 -2 47 -106 140 -281
l69 -133 50 25 c27 14 49 28 49 31 0 4 -27 57 -60 119 -49 92 -60 121 -60 160
0 40 5 52 33 79 17 18 39 35 47 38 12 4 10 13 -10 51 -14 26 -28 47 -31 47 -4
0 -22 -17 -41 -38z"/>
<path d="M3495 2472 c-52 -24 -118 -99 -133 -150 -27 -90 -9 -187 46 -246 42
-44 138 -86 197 -86 121 1 208 78 236 210 22 101 -34 211 -135 262 -58 30
-159 35 -211 10z m171 -98 c92 -44 82 -195 -15 -261 -59 -40 -133 -23 -171 40
-44 72 -5 188 75 223 40 18 70 17 111 -2z"/>
<path d="M4356 2367 c-8 -29 -22 -83 -32 -122 -15 -64 -34 -106 -34 -77 0 6
-15 28 -32 48 -133 151 -368 19 -368 -206 0 -64 41 -144 92 -178 51 -33 136
-41 192 -18 50 21 48 21 44 -16 -3 -30 0 -33 42 -45 24 -7 47 -10 51 -5 3 4
37 126 74 272 87 341 94 370 86 370 -3 0 -27 7 -53 14 l-47 15 -15 -52z m-139
-212 c30 -20 53 -72 53 -120 0 -107 -93 -179 -183 -141 -74 30 -97 121 -54
206 37 75 117 99 184 55z"/>
<path d="M4613 2370 c-24 -10 -43 -39 -43 -67 0 -56 93 -86 124 -41 41 58 -16
134 -81 108z"/>
<path d="M5497 2316 c-75 -32 -123 -69 -157 -123 -104 -164 -36 -405 138 -490
49 -24 68 -28 139 -27 111 2 195 40 253 118 22 29 40 56 40 59 0 4 -22 18 -49
31 l-49 25 -27 -39 c-53 -76 -170 -103 -256 -60 -111 57 -152 237 -78 341 55
78 180 103 270 55 l45 -23 28 39 c15 21 26 45 23 52 -11 29 -99 60 -182 63
-67 3 -89 0 -138 -21z"/>
<path d="M6085 2276 c-120 -57 -172 -177 -133 -307 27 -91 121 -159 219 -159
154 0 269 106 269 248 0 96 -63 193 -146 228 -53 22 -151 18 -209 -10z m176
-103 c39 -33 59 -79 59 -133 0 -55 -22 -94 -64 -114 -94 -45 -179 8 -201 125
-21 113 118 195 206 122z"/>
<path d="M4551 2087 c-49 -300 -59 -373 -53 -379 4 -4 30 -10 57 -13 l51 -7
35 232 c22 150 31 233 24 235 -5 2 -30 6 -55 9 l-46 5 -13 -82z"/>
<path d="M4855 2114 c-60 -22 -71 -36 -55 -74 17 -41 21 -42 66 -20 42 22 110
26 147 9 30 -14 50 -48 45 -79 -3 -22 -6 -23 -96 -21 -107 3 -165 -18 -195
-68 -21 -36 -22 -102 -1 -142 19 -37 83 -68 138 -69 43 0 124 34 133 56 8 22
20 17 27 -11 7 -29 52 -55 95 -55 27 0 30 4 36 42 6 34 4 44 -11 55 -17 12
-19 29 -19 153 0 159 -7 178 -85 218 -53 26 -161 29 -225 6z m173 -250 c31 -9
30 -63 -1 -99 -32 -38 -101 -45 -139 -15 -59 46 -17 120 69 120 26 0 58 -3 71
-6z"/>
</g>
</svg>
